<?xml version="1.0" standalone="no"?>
<!DOCTYPE svg PUBLIC "-//W3C//DTD SVG 20010904//EN"
 "http://www.w3.org/TR/2001/REC-SVG-20010904/DTD/svg10.dtd">
<svg version="1.0" xmlns="http://www.w3.org/2000/svg"
 width="550.000000pt" height="509.000000pt" viewBox="0 0 550.000000 509.000000"
 preserveAspectRatio="xMidYMid meet">

<g transform="translate(0.000000,509.000000) scale(0.100000,-0.100000)"
fill="#FFFFFF" stroke="none">
<path d="M3395 5014 c-16 -3 -66 -16 -110 -29 -186 -57 -349 -192 -430 -358
-49 -102 -75 -189 -75 -254 0 -53 -10 -59 -120 -66 -169 -12 -343 -48 -545
-114 -172 -56 -280 -103 -407 -177 -54 -31 -102 -56 -107 -56 -5 0 -36 27 -68
60 -32 34 -74 71 -93 82 -19 12 -37 25 -40 29 -11 14 -120 70 -176 90 -141 49
-319 63 -451 34 -196 -41 -326 -110 -461 -243 -157 -155 -242 -343 -258 -573
-21 -308 125 -585 395 -746 39 -24 78 -43 85 -43 22 0 29 -36 13 -67 -19 -37
-81 -240 -101 -331 -57 -257 -35 -610 55 -882 78 -238 227 -475 398 -634 24
-23 59 -56 79 -75 134 -123 431 -272 672 -337 97 -27 201 -46 208 -39 3 3 10
1 16 -4 6 -5 49 -12 96 -15 124 -9 174 -17 182 -30 4 -6 4 -29 1 -53 -12 -92
12 -112 152 -120 67 -4 95 -1 107 9 17 13 32 85 43 213 3 28 8 75 12 105 9 69
7 81 -19 102 -16 14 -39 18 -112 18 -98 0 -380 24 -481 41 -91 15 -205 42
-205 48 0 4 33 35 72 71 203 182 338 359 338 444 0 25 -37 56 -67 56 -15 0
-119 -46 -232 -103 -210 -105 -343 -168 -464 -219 l-67 -29 -44 30 c-42 29
-160 139 -185 173 -14 19 -24 12 150 102 251 129 369 229 369 314 0 32 -31 66
-68 75 -13 3 -68 -1 -123 -9 -55 -7 -114 -16 -132 -18 -18 -2 -102 -14 -187
-26 -200 -28 -260 -34 -260 -26 0 3 -11 44 -24 90 -14 46 -28 110 -31 143 -3
32 -8 67 -10 78 -4 19 7 22 133 44 329 58 606 171 647 265 9 21 10 38 3 57
-15 44 -54 53 -263 64 -213 12 -505 41 -505 50 0 12 33 143 54 210 35 118 70
203 144 355 37 74 67 139 67 145 0 5 -15 11 -32 12 -49 4 -155 55 -202 98 -25
23 -55 67 -77 112 -30 62 -36 86 -39 157 -4 85 5 127 49 216 60 123 219 208
371 197 110 -8 177 -38 254 -116 37 -36 74 -83 84 -103 10 -21 21 -38 26 -38
4 0 23 16 42 36 40 41 300 240 335 256 21 10 28 8 52 -14 77 -73 325 -224 444
-271 86 -35 120 -35 148 0 30 38 22 63 -75 238 -46 83 -95 172 -108 200 l-26
49 32 14 c17 7 52 18 77 23 168 39 301 58 419 62 l83 2 52 -82 c158 -254 286
-354 342 -269 14 22 14 37 0 160 -22 185 -25 169 37 161 157 -21 470 -131 627
-221 128 -73 121 -68 286 -183 298 -209 611 -574 784 -914 99 -196 129 -310
137 -524 7 -173 -7 -289 -53 -430 -47 -145 -141 -335 -202 -408 -4 -5 -17 -25
-27 -43 -11 -17 -25 -32 -32 -32 -7 0 -13 -5 -13 -10 0 -13 -129 -142 -200
-200 -30 -25 -57 -47 -60 -50 -14 -15 -71 -50 -80 -50 -5 0 -10 -4 -10 -8 0
-5 -15 -16 -32 -25 -18 -10 -51 -28 -73 -40 -141 -80 -289 -143 -486 -205 -47
-15 -96 -34 -109 -43 l-24 -16 23 -158 c13 -87 25 -168 27 -179 2 -12 7 -36
10 -54 9 -46 33 -53 124 -36 83 16 144 40 135 55 -4 5 -1 9 4 9 6 0 11 11 11
25 0 14 -6 25 -12 25 -9 0 -8 4 2 10 8 5 10 10 5 10 -6 0 -11 18 -11 41 -1 23
-7 45 -15 50 -11 7 -12 9 0 9 8 0 11 6 7 15 -4 10 2 19 17 24 12 5 67 26 122
46 104 40 320 143 366 176 15 10 31 19 37 19 5 0 16 7 23 16 7 9 22 20 34 25
19 9 66 41 110 74 73 56 223 201 287 277 50 58 156 210 165 236 4 10 15 28 24
42 10 14 32 61 50 105 17 44 35 85 39 90 5 6 10 22 12 35 2 14 9 34 14 45 6
11 10 27 9 35 -1 8 2 20 7 26 4 6 9 26 10 45 2 19 6 36 9 39 4 3 10 27 13 54
4 27 9 53 12 58 9 15 7 365 -2 379 -4 8 -9 27 -10 43 -2 16 -9 33 -16 37 -10
7 -10 9 2 9 13 0 13 1 0 10 -13 9 -13 10 0 10 9 0 11 3 5 8 -5 4 -11 20 -12
36 -1 16 -6 32 -10 35 -4 3 -9 19 -10 36 -1 16 -6 36 -9 45 -4 8 -9 24 -11 35
-2 10 -7 22 -11 25 -4 3 -8 14 -10 25 -4 26 -25 75 -32 75 -3 0 -6 9 -7 21 -2
27 -26 79 -36 79 -5 0 -5 5 -2 10 3 6 -1 13 -9 16 -9 3 -16 12 -16 20 0 8 -4
14 -8 14 -4 0 -9 10 -9 22 -1 13 -7 24 -13 26 -5 2 -10 10 -10 18 0 8 -5 14
-11 14 -5 0 -8 4 -5 9 5 8 -144 236 -168 256 -6 6 -22 26 -35 45 -13 19 -41
52 -63 73 -21 20 -35 37 -31 37 4 0 -10 16 -30 35 -20 19 -37 39 -37 44 0 5
-9 13 -21 16 -11 4 -18 9 -16 11 5 6 -75 87 -149 152 -45 38 -70 58 -164 132
-18 14 -44 31 -59 39 -14 8 -28 17 -31 21 -3 3 -27 21 -55 40 -88 59 -85 52
-54 118 16 31 31 68 33 82 3 14 9 41 14 60 5 20 8 43 6 53 -1 9 1 19 6 22 10
6 13 145 2 145 -4 0 -7 23 -8 51 0 28 -5 54 -10 57 -5 4 -9 14 -9 22 1 8 -3
24 -9 35 -5 11 -11 29 -13 40 -2 10 -9 23 -16 27 -6 4 -7 8 -2 8 6 0 1 7 -9
15 -11 8 -16 15 -12 15 7 0 -18 49 -44 84 -32 43 -147 153 -189 180 -59 38
-185 91 -250 105 -60 13 -240 22 -286 15z m243 -556 c75 -35 134 -103 157
-180 17 -57 20 -138 6 -138 -5 0 -51 16 -101 35 -50 19 -99 35 -109 35 -9 0
-21 4 -27 10 -10 10 -257 67 -319 73 -47 4 -49 21 -7 77 51 68 120 108 205
119 77 10 125 3 195 -31z"/>
<path d="M4110 3270 c-87 -11 -157 -70 -180 -151 -42 -145 36 -283 177 -314
80 -17 192 34 227 104 28 55 28 171 0 171 -22 0 -27 20 -9 40 16 17 16 21 0
55 -19 39 -83 82 -138 94 -18 4 -52 4 -77 1z"/>
<path d="M2505 2752 c-79 -27 -114 -58 -148 -129 -26 -56 -29 -73 -25 -127 15
-186 186 -308 348 -247 30 11 67 32 83 46 59 55 98 185 64 214 -15 11 -15 15
-1 36 19 29 12 58 -31 116 -62 86 -188 126 -290 91z"/>
<path d="M4160 2715 c-127 -18 -197 -38 -308 -87 -269 -118 -330 -229 -179
-328 65 -44 349 -187 399 -202 45 -13 51 -28 38 -96 -14 -74 -44 -128 -93
-163 -37 -27 -48 -30 -86 -25 -60 8 -121 46 -156 96 -58 84 -113 109 -163 74
-12 -8 -22 -25 -22 -37 1 -72 102 -195 204 -247 50 -25 80 -33 132 -36 37 -1
72 0 78 4 6 3 18 8 28 9 57 9 144 90 179 168 13 28 24 51 24 52 1 2 27 -11 59
-28 72 -39 133 -41 203 -5 83 42 132 135 140 266 6 95 -7 125 -59 134 -45 8
-65 -19 -78 -104 -6 -41 -21 -95 -33 -120 -20 -41 -26 -45 -62 -48 -51 -3 -96
24 -130 77 l-25 40 26 38 c61 90 156 317 175 420 8 40 6 60 -5 87 -17 40 -36
52 -96 61 -25 3 -56 7 -70 9 -14 2 -68 -2 -120 -9z"/>
</g>
</svg>
